<svg width="226" height="35" viewBox="0 0 226 35" fill="none" xmlns="http://www.w3.org/2000/svg">
<path d="M0.745 14.8C0.745 12.6027 1.23567 10.64 2.217 8.912C3.21967 7.16267 4.57433 5.808 6.281 4.848C8.009 3.86667 9.93967 3.376 12.073 3.376C14.569 3.376 16.7557 4.016 18.633 5.296C20.5103 6.576 21.8223 8.34667 22.569 10.608H17.417C16.905 9.54133 16.1797 8.74133 15.241 8.208C14.3237 7.67467 13.257 7.408 12.041 7.408C10.7397 7.408 9.577 7.71733 8.553 8.336C7.55033 8.93333 6.761 9.78667 6.185 10.896C5.63033 12.0053 5.353 13.3067 5.353 14.8C5.353 16.272 5.63033 17.5733 6.185 18.704C6.761 19.8133 7.55033 20.6773 8.553 21.296C9.577 21.8933 10.7397 22.192 12.041 22.192C13.257 22.192 14.3237 21.9253 15.241 21.392C16.1797 20.8373 16.905 20.0267 17.417 18.96H22.569C21.8223 21.2427 20.5103 23.024 18.633 24.304C16.777 25.5627 14.5903 26.192 12.073 26.192C9.93967 26.192 8.009 25.712 6.281 24.752C4.57433 23.7707 3.21967 22.416 2.217 20.688C1.23567 18.96 0.745 16.9973 0.745 14.8ZM33.1075 26.224C31.5502 26.224 30.1422 25.9573 28.8835 25.424C27.6462 24.8907 26.6648 24.1227 25.9395 23.12C25.2142 22.1173 24.8408 20.9333 24.8195 19.568H29.6195C29.6835 20.4853 30.0035 21.2107 30.5795 21.744C31.1768 22.2773 31.9875 22.544 33.0115 22.544C34.0568 22.544 34.8782 22.2987 35.4755 21.808C36.0728 21.296 36.3715 20.6347 36.3715 19.824C36.3715 19.1627 36.1688 18.6187 35.7635 18.192C35.3582 17.7653 34.8462 17.4347 34.2275 17.2C33.6302 16.944 32.7982 16.6667 31.7315 16.368C30.2808 15.9413 29.0968 15.5253 28.1795 15.12C27.2835 14.6933 26.5048 14.064 25.8435 13.232C25.2035 12.3787 24.8835 11.248 24.8835 9.84C24.8835 8.51733 25.2142 7.36533 25.8755 6.384C26.5368 5.40267 27.4648 4.656 28.6595 4.144C29.8542 3.61067 31.2195 3.344 32.7555 3.344C35.0595 3.344 36.9262 3.90933 38.3555 5.04C39.8062 6.14933 40.6062 7.70667 40.7555 9.712H35.8275C35.7848 8.944 35.4542 8.31467 34.8355 7.824C34.2382 7.312 33.4382 7.056 32.4355 7.056C31.5608 7.056 30.8568 7.28 30.3235 7.728C29.8115 8.176 29.5555 8.82667 29.5555 9.68C29.5555 10.2773 29.7475 10.7787 30.1315 11.184C30.5368 11.568 31.0275 11.888 31.6035 12.144C32.2008 12.3787 33.0328 12.656 34.0995 12.976C35.5502 13.4027 36.7342 13.8293 37.6515 14.256C38.5688 14.6827 39.3582 15.3227 40.0195 16.176C40.6808 17.0293 41.0115 18.1493 41.0115 19.536C41.0115 20.7307 40.7022 21.84 40.0835 22.864C39.4648 23.888 38.5582 24.7093 37.3635 25.328C36.1688 25.9253 34.7502 26.224 33.1075 26.224ZM57.5915 21.744H48.6955L47.2235 26H42.5195L50.5515 3.632H55.7675L63.7995 26H59.0635L57.5915 21.744ZM56.3755 18.16L53.1435 8.816L49.9115 18.16H56.3755ZM79.4338 12.688V16.464H65.8658V12.688H79.4338ZM87.938 22.448H95.298V26H83.458V3.664H87.938V22.448ZM113.626 16.752C113.626 17.392 113.583 17.968 113.498 18.48H100.538C100.644 19.76 101.092 20.7627 101.882 21.488C102.671 22.2133 103.642 22.576 104.794 22.576C106.458 22.576 107.642 21.8613 108.346 20.432H113.178C112.666 22.1387 111.684 23.5467 110.234 24.656C108.783 25.744 107.002 26.288 104.89 26.288C103.183 26.288 101.647 25.9147 100.282 25.168C98.9375 24.4 97.8815 23.3227 97.1135 21.936C96.3668 20.5493 95.9935 18.9493 95.9935 17.136C95.9935 15.3013 96.3668 13.6907 97.1135 12.304C97.8602 10.9173 98.9055 9.85067 100.25 9.104C101.594 8.35733 103.14 7.984 104.89 7.984C106.575 7.984 108.079 8.34667 109.402 9.072C110.746 9.79733 111.78 10.832 112.506 12.176C113.252 13.4987 113.626 15.024 113.626 16.752ZM108.986 15.472C108.964 14.32 108.548 13.4027 107.738 12.72C106.927 12.016 105.935 11.664 104.762 11.664C103.652 11.664 102.714 12.0053 101.946 12.688C101.199 13.3493 100.74 14.2773 100.57 15.472H108.986ZM114.743 17.072C114.743 15.28 115.095 13.6907 115.799 12.304C116.525 10.9173 117.496 9.85067 118.712 9.104C119.949 8.35733 121.325 7.984 122.84 7.984C124.162 7.984 125.314 8.25067 126.296 8.784C127.298 9.31733 128.098 9.98933 128.696 10.8V8.272H133.208V26H128.696V23.408C128.12 24.24 127.32 24.9333 126.296 25.488C125.293 26.0213 124.13 26.288 122.808 26.288C121.314 26.288 119.949 25.904 118.712 25.136C117.496 24.368 116.525 23.2907 115.799 21.904C115.095 20.496 114.743 18.8853 114.743 17.072ZM128.696 17.136C128.696 16.048 128.482 15.12 128.056 14.352C127.629 13.5627 127.053 12.9653 126.328 12.56C125.602 12.1333 124.824 11.92 123.992 11.92C123.16 11.92 122.392 12.1227 121.688 12.528C120.984 12.9333 120.408 13.5307 119.96 14.32C119.533 15.088 119.32 16.0053 119.32 17.072C119.32 18.1387 119.533 19.0773 119.96 19.888C120.408 20.6773 120.984 21.2853 121.688 21.712C122.413 22.1387 123.181 22.352 123.992 22.352C124.824 22.352 125.602 22.1493 126.328 21.744C127.053 21.3173 127.629 20.72 128.056 19.952C128.482 19.1627 128.696 18.224 128.696 17.136ZM141.063 11.024C141.639 10.0853 142.386 9.34933 143.303 8.816C144.242 8.28267 145.308 8.016 146.503 8.016V12.72H145.319C143.911 12.72 142.844 13.0507 142.119 13.712C141.415 14.3733 141.063 15.5253 141.063 17.168V26H136.583V8.272H141.063V11.024ZM158.345 8.016C160.457 8.016 162.163 8.688 163.465 10.032C164.766 11.3547 165.417 13.2107 165.417 15.6V26H160.937V16.208C160.937 14.8 160.585 13.7227 159.881 12.976C159.177 12.208 158.217 11.824 157.001 11.824C155.763 11.824 154.782 12.208 154.057 12.976C153.353 13.7227 153.001 14.8 153.001 16.208V26H148.521V8.272H153.001V10.48C153.598 9.712 154.355 9.11467 155.273 8.688C156.211 8.24 157.235 8.016 158.345 8.016ZM170.949 6.16C170.159 6.16 169.498 5.91467 168.965 5.424C168.453 4.912 168.197 4.28267 168.197 3.536C168.197 2.78933 168.453 2.17067 168.965 1.68C169.498 1.168 170.159 0.911999 170.949 0.911999C171.738 0.911999 172.389 1.168 172.901 1.68C173.434 2.17067 173.701 2.78933 173.701 3.536C173.701 4.28267 173.434 4.912 172.901 5.424C172.389 5.91467 171.738 6.16 170.949 6.16ZM173.157 8.272V26H168.677V8.272H173.157ZM186.407 8.016C188.519 8.016 190.226 8.688 191.527 10.032C192.828 11.3547 193.479 13.2107 193.479 15.6V26H188.999V16.208C188.999 14.8 188.647 13.7227 187.943 12.976C187.239 12.208 186.279 11.824 185.063 11.824C183.826 11.824 182.844 12.208 182.119 12.976C181.415 13.7227 181.063 14.8 181.063 16.208V26H176.583V8.272H181.063V10.48C181.66 9.712 182.418 9.11467 183.335 8.688C184.274 8.24 185.298 8.016 186.407 8.016ZM203.683 7.984C205.006 7.984 206.169 8.25067 207.171 8.784C208.174 9.296 208.963 9.968 209.539 10.8V8.272H214.051V26.128C214.051 27.7707 213.721 29.232 213.059 30.512C212.398 31.8133 211.406 32.8373 210.083 33.584C208.761 34.352 207.161 34.736 205.283 34.736C202.766 34.736 200.697 34.1493 199.075 32.976C197.475 31.8027 196.569 30.2027 196.355 28.176H200.803C201.038 28.9867 201.539 29.6267 202.307 30.096C203.097 30.5867 204.046 30.832 205.155 30.832C206.457 30.832 207.513 30.4373 208.323 29.648C209.134 28.88 209.539 27.7067 209.539 26.128V23.376C208.963 24.208 208.163 24.9013 207.139 25.456C206.137 26.0107 204.985 26.288 203.683 26.288C202.19 26.288 200.825 25.904 199.587 25.136C198.35 24.368 197.369 23.2907 196.643 21.904C195.939 20.496 195.587 18.8853 195.587 17.072C195.587 15.28 195.939 13.6907 196.643 12.304C197.369 10.9173 198.339 9.85067 199.555 9.104C200.793 8.35733 202.169 7.984 203.683 7.984ZM209.539 17.136C209.539 16.048 209.326 15.12 208.899 14.352C208.473 13.5627 207.897 12.9653 207.171 12.56C206.446 12.1333 205.667 11.92 204.835 11.92C204.003 11.92 203.235 12.1227 202.531 12.528C201.827 12.9333 201.251 13.5307 200.803 14.32C200.377 15.088 200.163 16.0053 200.163 17.072C200.163 18.1387 200.377 19.0773 200.803 19.888C201.251 20.6773 201.827 21.2853 202.531 21.712C203.257 22.1387 204.025 22.352 204.835 22.352C205.667 22.352 206.446 22.1493 207.171 21.744C207.897 21.3173 208.473 20.72 208.899 19.952C209.326 19.1627 209.539 18.224 209.539 17.136Z" fill="white"/>
<path d="M221.507 26.336C220.291 26.336 219.283 25.968 218.483 25.232C217.715 24.464 217.331 23.52 217.331 22.4C217.331 21.28 217.715 20.352 218.483 19.616C219.283 18.848 220.291 18.464 221.507 18.464C222.691 18.464 223.667 18.848 224.435 19.616C225.203 20.352 225.587 21.28 225.587 22.4C225.587 23.52 225.203 24.464 224.435 25.232C223.667 25.968 222.691 26.336 221.507 26.336Z" fill="#FF7C5D"/>
</svg>
